<svg xmlns="http://www.w3.org/2000/svg" viewBox="0 0 1280 724" font-family="'Segoe UI','PingFang SC','Microsoft YaHei UI','Microsoft YaHei',system-ui,-apple-system,Roboto,sans-serif">
  <defs>
    <linearGradient id="bg" x1="0" y1="0" x2="1" y2="1">
      <stop offset="0" stop-color="#eef2f9"/><stop offset="1" stop-color="#e0e7f3"/>
    </linearGradient>
    <linearGradient id="shot" x1="0" y1="0" x2="0" y2="1">
      <stop offset="0" stop-color="#8fc0f2"/><stop offset="0.55" stop-color="#c4e0fb"/><stop offset="1" stop-color="#eaf4ff"/>
    </linearGradient>
    <linearGradient id="wordmark" x1="0" y1="0" x2="1" y2="0">
      <stop offset="0" stop-color="#3a4c7a"/><stop offset="1" stop-color="#5b7bd5"/>
    </linearGradient>
    <filter id="winShadow" x="-30%" y="-30%" width="160%" height="160%">
      <feDropShadow dx="0" dy="10" stdDeviation="20" flood-color="#1b2748" flood-opacity="0.22"/>
    </filter>
    <filter id="pvShadow" x="-40%" y="-40%" width="180%" height="180%">
      <feDropShadow dx="0" dy="8" stdDeviation="16" flood-color="#1b2748" flood-opacity="0.20"/>
    </filter>
    <filter id="chipShadow" x="-20%" y="-40%" width="140%" height="180%">
      <feDropShadow dx="0" dy="2" stdDeviation="4" flood-color="#1b2748" flood-opacity="0.14"/>
    </filter>
    <clipPath id="winL"><rect x="112" y="104" width="440" height="576" rx="14"/></clipPath>
    <clipPath id="thL"><rect x="148" y="426" width="160" height="90" rx="5"/></clipPath>
    <symbol id="ic-search" viewBox="0 0 24 24" fill="none" stroke="currentColor" stroke-width="2" stroke-linecap="round" stroke-linejoin="round"><circle cx="11" cy="11" r="8"/><line x1="21" y1="21" x2="16.65" y2="16.65"/></symbol>
    <symbol id="ic-settings" viewBox="0 0 24 24" fill="none" stroke="currentColor" stroke-width="2" stroke-linecap="round" stroke-linejoin="round"><path d="M12.22 2h-.44a2 2 0 0 0-2 2v.18a2 2 0 0 1-1 1.73l-.43.25a2 2 0 0 1-2 0l-.15-.08a2 2 0 0 0-2.73.73l-.22.38a2 2 0 0 0 .73 2.73l.15.1a2 2 0 0 1 1 1.72v.51a2 2 0 0 1-1 1.74l-.15.09a2 2 0 0 0-.73 2.73l.22.38a2 2 0 0 0 2.73.73l.15-.08a2 2 0 0 1 2 0l.43.25a2 2 0 0 1 1 1.73V20a2 2 0 0 0 2 2h.44a2 2 0 0 0 2-2v-.18a2 2 0 0 1 1-1.73l.43-.25a2 2 0 0 1 2 0l.15.08a2 2 0 0 0 2.73-.73l.22-.39a2 2 0 0 0-.73-2.73l-.15-.08a2 2 0 0 1-1-1.74v-.5a2 2 0 0 1 1-1.74l.15-.09a2 2 0 0 0 .73-2.73l-.22-.38a2 2 0 0 0-2.73-.73l-.15.08a2 2 0 0 1-2 0l-.43-.25a2 2 0 0 1-1-1.73V4a2 2 0 0 0-2-2z"/><circle cx="12" cy="12" r="3"/></symbol>
    <symbol id="ic-help" viewBox="0 0 24 24" fill="none" stroke="currentColor" stroke-width="2" stroke-linecap="round" stroke-linejoin="round"><circle cx="12" cy="12" r="10"/><path d="M9.09 9a3 3 0 0 1 5.83 1c0 2-3 3-3 3"/><line x1="12" y1="17" x2="12.01" y2="17"/></symbol>
    <symbol id="ic-ftext" viewBox="0 0 24 24" fill="none" stroke="currentColor" stroke-width="2" stroke-linecap="round" stroke-linejoin="round"><path d="M17 6.1H3"/><path d="M21 12.1H3"/><path d="M15.1 18H3"/></symbol>
    <symbol id="ic-fimage" viewBox="0 0 24 24" fill="none" stroke="currentColor" stroke-width="2" stroke-linecap="round" stroke-linejoin="round"><rect width="18" height="18" x="3" y="3" rx="2" ry="2"/><circle cx="9" cy="9" r="2"/><path d="m21 15-3.086-3.086a2 2 0 0 0-2.828 0L6 21"/></symbol>
    <symbol id="ic-ffiles" viewBox="0 0 24 24" fill="none" stroke="currentColor" stroke-width="2" stroke-linecap="round" stroke-linejoin="round"><path d="M14 3H6a2 2 0 0 0-2 2v14a2 2 0 0 0 2 2h12a2 2 0 0 0 2-2V9z"/><path d="M14 3v6h6"/><path d="M8 13h8"/><path d="M8 17h5"/></symbol>
    <symbol id="ic-star" viewBox="0 0 24 24" fill="none" stroke="currentColor" stroke-width="2" stroke-linecap="round" stroke-linejoin="round"><polygon points="12 2 15.09 8.26 22 9.27 17 14.14 18.18 21.02 12 17.77 5.82 21.02 7 14.14 2 9.27 8.91 8.26 12 2"/></symbol>
    <symbol id="ic-star-fill" viewBox="0 0 24 24" stroke="currentColor" stroke-width="2" stroke-linecap="round" stroke-linejoin="round"><polygon fill="currentColor" points="12 2 15.09 8.26 22 9.27 17 14.14 18.18 21.02 12 17.77 5.82 21.02 7 14.14 2 9.27 8.91 8.26 12 2"/></symbol>
    <symbol id="ic-pin" viewBox="0 0 1024 1024"><path fill="currentColor" d="M512 375.04a42.67 42.67 0 0 1 42.67 42.67v469.33a42.67 42.67 0 0 1-85.34 0v-469.33A42.67 42.67 0 0 1 512 375.04z"/><path fill="currentColor" d="M511.83 359.08a42.67 42.67 0 0 1 27.43 10.03l264.28 222.16a42.67 42.67 0 0 1-54.91 65.32l-236.84-199.08-236.8 199.08a42.67 42.67 0 1 1-54.91-65.32l264.28-222.16a42.67 42.67 0 0 1 27.47-10.03zM202.58 94.38h618.67a42.67 42.67 0 0 1 0 85.33H202.58a42.67 42.67 0 0 1 0-85.33z"/></symbol>
    <symbol id="ic-x" viewBox="0 0 24 24" fill="none" stroke="currentColor" stroke-width="2" stroke-linecap="round" stroke-linejoin="round"><circle cx="12" cy="12" r="10"/><path d="m15 9-6 6"/><path d="m9 9 6 6"/></symbol>
  </defs>

  <rect width="1280" height="724" fill="url(#bg)"/>
  <circle cx="230" cy="620" r="220" fill="#5b7bd5" opacity="0.06"/>
  <circle cx="1150" cy="150" r="190" fill="#5b7bd5" opacity="0.06"/>

  <!-- wordmark -->
  <text x="60" y="74" font-size="46" font-weight="700" fill="url(#wordmark)" letter-spacing="-1">hopy</text>
  <text x="62" y="102" font-size="15.5" fill="#5a6580">轻量 · 跨平台剪贴板管理器　插入符跟随 · 永不抢焦点</text>

  <!-- ===================== PREVIEW POPUP (left) ===================== -->
  <rect x="150" y="140" width="250" height="32" rx="9" fill="#ffffff" stroke="#d8dee9" filter="url(#chipShadow)"/>
  <circle cx="167" cy="156" r="4.5" fill="#5b7bd5"/>
  <text x="181" y="161" font-size="13" fill="#2a3342" font-weight="600">实时预览 · 悬浮 / 空格弹出</text>

  <rect x="150" y="176" width="340" height="404" rx="12" fill="#ffffff" filter="url(#pvShadow)"/>
  <rect x="150" y="176" width="340" height="404" rx="12" fill="#ffffff" stroke="#e0e0e0"/>
  <g fill="#1a1a1a">
    <text x="172" y="218" font-size="16" font-weight="700">feat(ui): 双击卡片 = Enter 回贴</text>
    <text x="172" y="262" font-size="15">· 双击 = 选中并回贴，与 Enter 一致</text>
    <text x="172" y="292" font-size="15">· Shift + 双击 → 纯文本回贴</text>
    <text x="172" y="322" font-size="15">· 命中同一套 confirm 逻辑，随即隐藏</text>
    <text x="172" y="352" font-size="15">· 被贴卡片自动置顶到列表首位</text>
    <text x="172" y="398" font-size="15" fill="#6b6b6b">—— 悬浮即预览 · 双击即回贴 ——</text>
  </g>
  <rect x="474" y="192" width="4" height="112" rx="2" fill="#c4ccdb"/>

  <!-- dashed link: selected card B  <->  preview -->
  <path d="M648 373 C 585 373, 560 366, 490 366" stroke="#5b7bd5" stroke-width="1.6" stroke-dasharray="5 5" fill="none" opacity="0.6"/>
  <circle cx="490" cy="366" r="3.5" fill="#5b7bd5"/>
  <circle cx="648" cy="373" r="3.5" fill="#5b7bd5"/>

  <!-- ===================== MAIN WINDOW (accurate layout, translate +516/+8) ===================== -->
  <g transform="translate(516,8)">
    <rect x="112" y="104" width="440" height="576" rx="14" fill="#ffffff" filter="url(#winShadow)"/>
    <g clip-path="url(#winL)">
      <rect x="112" y="104" width="440" height="576" fill="#ffffff"/>
      <text x="134" y="158" font-size="24" font-weight="700" fill="#303136">Hopy</text>
      <use href="#ic-help" x="474" y="138" width="22" height="22" color="#40444a"/>
      <use href="#ic-settings" x="506" y="138" width="22" height="22" color="#40444a"/>
      <rect x="134" y="180" width="228" height="34" rx="17" fill="#f0f0f0" stroke="#e0e0e0"/>
      <use href="#ic-search" x="150" y="189" width="16" height="16" color="#6b6b6b"/>
      <text x="318" y="203" font-size="13" fill="#6b6b6b">Aa</text>
      <text x="342" y="203" font-size="13" fill="#6b6b6b">W</text>
      <rect x="370" y="182" width="120" height="32" rx="8" fill="#f0f0f0" stroke="#e0e0e0"/>
      <use href="#ic-ftext" x="382" y="190" width="18" height="18" color="#6b6b6b"/>
      <use href="#ic-fimage" x="419" y="190" width="18" height="18" color="#6b6b6b"/>
      <use href="#ic-ffiles" x="456" y="190" width="18" height="18" color="#6b6b6b"/>
      <rect x="498" y="182" width="32" height="32" rx="8" fill="#f0f0f0" stroke="#e0e0e0"/>
      <use href="#ic-star" x="506" y="190" width="18" height="18" color="#6b6b6b"/>

      <!-- A color -->
      <rect x="132" y="228" width="400" height="86" rx="10" fill="#f5f5f5" stroke="#e0e0e0"/>
      <rect x="148" y="250" width="14" height="14" rx="3" fill="#5b7bd5" stroke="#808080" stroke-opacity="0.5"/>
      <text x="170" y="261" font-size="14" fill="#1a1a1a" font-family="'Cascadia Code','Consolas',ui-monospace,monospace">#5B7BD5</text>
      <text x="246" y="261" font-size="13" fill="#6b6b6b">主题色 · primary</text>
      <use href="#ic-star-fill" x="458" y="240" width="14" height="14" color="#5b7bd5"/>
      <use href="#ic-pin" x="480" y="240" width="14" height="14" color="#6b6b6b"/>
      <use href="#ic-x" x="502" y="240" width="14" height="14" color="#6b6b6b"/>
      <text x="148" y="304" font-size="10.5" fill="#6b6b6b">1     2026-07-03 15:24:47</text>
      <use href="#ic-ftext" x="504" y="295" width="12" height="12" color="#6b6b6b"/>

      <!-- B text selected (previewed) -->
      <rect x="132" y="322" width="400" height="86" rx="10" fill="#e8edf8" stroke="#5b7bd5" stroke-opacity="0.55" stroke-width="1.5"/>
      <text x="148" y="352" font-size="14" fill="#1a1a1a">feat(ui): 双击卡片 = Enter 回贴</text>
      <text x="148" y="372" font-size="14" fill="#1a1a1a">同一套回贴逻辑，Shift 走纯文本粘贴…</text>
      <use href="#ic-star" x="458" y="334" width="14" height="14" color="#6b6b6b"/>
      <use href="#ic-pin" x="480" y="334" width="14" height="14" color="#6b6b6b"/>
      <use href="#ic-x" x="502" y="334" width="14" height="14" color="#6b6b6b"/>
      <text x="148" y="398" font-size="10.5" fill="#6b6b6b">2     2026-07-03 15:22:31</text>
      <use href="#ic-ftext" x="504" y="389" width="12" height="12" color="#6b6b6b"/>

      <!-- C image (height = thumb 90 + 46) -->
      <rect x="132" y="416" width="400" height="136" rx="10" fill="#f5f5f5" stroke="#e0e0e0"/>
      <g clip-path="url(#thL)">
        <rect x="148" y="426" width="160" height="90" fill="url(#shot)"/>
        <circle cx="285" cy="448" r="13" fill="#fff2c4" opacity="0.9"/>
        <path d="M148 510 L190 476 L228 502 L272 462 L308 504 L308 516 L148 516 Z" fill="#7fae74"/>
        <path d="M148 516 L208 488 L268 508 L308 478 L308 516 Z" fill="#5f9464"/>
      </g>
      <rect x="148" y="426" width="160" height="90" rx="5" fill="none" stroke="#000000" stroke-opacity="0.08"/>
      <use href="#ic-star" x="458" y="428" width="14" height="14" color="#6b6b6b"/>
      <use href="#ic-pin" x="480" y="428" width="14" height="14" color="#6b6b6b"/>
      <use href="#ic-x" x="502" y="428" width="14" height="14" color="#6b6b6b"/>
      <text x="148" y="536" font-size="10.5" fill="#6b6b6b">3     2026-07-03 15:21:20   ·   1920×1080</text>
      <use href="#ic-fimage" x="504" y="527" width="12" height="12" color="#6b6b6b"/>

      <!-- D files pinned -->
      <rect x="132" y="560" width="400" height="104" rx="10" fill="#f5f5f5" stroke="#e0e0e0"/>
      <text x="148" y="590" font-size="14" fill="#1a1a1a">hopy-预算表-2026Q2.xlsx</text>
      <text x="148" y="610" font-size="12" fill="#6b6b6b">E:\Hunlongyu\Documents\finance\</text>
      <text x="148" y="626" font-size="12" fill="#6b6b6b">hopy-预算表-2026Q2.xlsx</text>
      <use href="#ic-star" x="458" y="572" width="14" height="14" color="#6b6b6b"/>
      <use href="#ic-pin" x="480" y="572" width="14" height="14" color="#5b7bd5"/>
      <use href="#ic-x" x="502" y="572" width="14" height="14" color="#6b6b6b"/>
      <text x="148" y="646" font-size="10.5" fill="#6b6b6b">4     2026-07-03 15:17:00</text>
      <use href="#ic-ffiles" x="504" y="637" width="12" height="12" color="#6b6b6b"/>
    </g>
  </g>

  <!-- mouse cursor over card B -->
  <g transform="translate(982,372)">
    <path d="M0 0 L0 20 L5.2 15.2 L8.6 22.4 L11.4 21 L8 14 L15 14 Z" fill="#ffffff" stroke="#1a2036" stroke-width="1.4" stroke-linejoin="round"/>
  </g>

  <!-- ===================== RIGHT CALLOUTS ===================== -->
  <g font-size="13" font-weight="600" fill="#2a3342">
    <!-- 1 search/filter -->
    <path d="M1048 205 L1088 205" stroke="#9aa6bf" stroke-width="1.6" fill="none"/>
    <circle cx="1048" cy="205" r="3" fill="#5b7bd5"/>
    <rect x="1088" y="189" width="150" height="32" rx="9" fill="#ffffff" stroke="#d8dee9" filter="url(#chipShadow)"/>
    <circle cx="1105" cy="205" r="4.5" fill="#5b7bd5"/>
    <text x="1119" y="210">搜索 + 类型筛选</text>

    <!-- 2 color card -->
    <path d="M1048 279 L1088 279" stroke="#9aa6bf" stroke-width="1.6" fill="none"/>
    <circle cx="1048" cy="279" r="3" fill="#5b7bd5"/>
    <rect x="1088" y="263" width="160" height="32" rx="9" fill="#ffffff" stroke="#d8dee9" filter="url(#chipShadow)"/>
    <circle cx="1105" cy="279" r="4.5" fill="#5b7bd5"/>
    <text x="1119" y="284">颜色值卡片 · 自动色块</text>

    <!-- 3 selected / paste (new feature) -->
    <path d="M1048 373 L1088 373" stroke="#9aa6bf" stroke-width="1.6" fill="none"/>
    <circle cx="1048" cy="373" r="3" fill="#5b7bd5"/>
    <rect x="1088" y="357" width="156" height="32" rx="9" fill="#eef2fc" stroke="#5b7bd5" stroke-opacity="0.5" filter="url(#chipShadow)"/>
    <circle cx="1105" cy="373" r="4.5" fill="#5b7bd5"/>
    <text x="1119" y="378" fill="#31406b">双击 / Enter 回贴</text>

    <!-- 4 image -->
    <path d="M1048 492 L1088 492" stroke="#9aa6bf" stroke-width="1.6" fill="none"/>
    <circle cx="1048" cy="492" r="3" fill="#5b7bd5"/>
    <rect x="1088" y="476" width="148" height="32" rx="9" fill="#ffffff" stroke="#d8dee9" filter="url(#chipShadow)"/>
    <circle cx="1105" cy="492" r="4.5" fill="#5b7bd5"/>
    <text x="1119" y="497">图片缩略图卡片</text>

    <!-- 5 files/pin -->
    <path d="M1048 620 L1088 620" stroke="#9aa6bf" stroke-width="1.6" fill="none"/>
    <circle cx="1048" cy="620" r="3" fill="#5b7bd5"/>
    <rect x="1088" y="604" width="150" height="32" rx="9" fill="#ffffff" stroke="#d8dee9" filter="url(#chipShadow)"/>
    <circle cx="1105" cy="620" r="4.5" fill="#5b7bd5"/>
    <text x="1119" y="625">文件卡片 · 可置顶</text>
  </g>
</svg>
