<svg xmlns="http://www.w3.org/2000/svg" viewBox="0 0 1280 748" font-family="'Segoe UI','PingFang SC','Microsoft YaHei UI','Microsoft YaHei',system-ui,-apple-system,Roboto,sans-serif">
  <defs>
    <linearGradient id="bgL" x1="0" y1="0" x2="0" y2="1">
      <stop offset="0" stop-color="#eef2f9"/><stop offset="1" stop-color="#dde5f1"/>
    </linearGradient>
    <linearGradient id="bgD" x1="0" y1="0" x2="0" y2="1">
      <stop offset="0" stop-color="#242836"/><stop offset="1" stop-color="#171a24"/>
    </linearGradient>
    <linearGradient id="shot" x1="0" y1="0" x2="0" y2="1">
      <stop offset="0" stop-color="#8fc0f2"/><stop offset="0.55" stop-color="#c4e0fb"/><stop offset="1" stop-color="#eaf4ff"/>
    </linearGradient>
    <filter id="winShadow" x="-30%" y="-30%" width="160%" height="160%">
      <feDropShadow dx="0" dy="10" stdDeviation="20" flood-color="#0d1220" flood-opacity="0.30"/>
    </filter>
    <clipPath id="winL"><rect x="112" y="104" width="440" height="576" rx="14"/></clipPath>
    <clipPath id="winR"><rect x="728" y="104" width="440" height="576" rx="14"/></clipPath>
    <clipPath id="thL"><rect x="148" y="426" width="160" height="90" rx="5"/></clipPath>
    <clipPath id="thR"><rect x="764" y="426" width="160" height="90" rx="5"/></clipPath>
    <symbol id="ic-search" viewBox="0 0 24 24" fill="none" stroke="currentColor" stroke-width="2" stroke-linecap="round" stroke-linejoin="round"><circle cx="11" cy="11" r="8"/><line x1="21" y1="21" x2="16.65" y2="16.65"/></symbol>
    <symbol id="ic-settings" viewBox="0 0 24 24" fill="none" stroke="currentColor" stroke-width="2" stroke-linecap="round" stroke-linejoin="round"><path d="M12.22 2h-.44a2 2 0 0 0-2 2v.18a2 2 0 0 1-1 1.73l-.43.25a2 2 0 0 1-2 0l-.15-.08a2 2 0 0 0-2.73.73l-.22.38a2 2 0 0 0 .73 2.73l.15.1a2 2 0 0 1 1 1.72v.51a2 2 0 0 1-1 1.74l-.15.09a2 2 0 0 0-.73 2.73l.22.38a2 2 0 0 0 2.73.73l.15-.08a2 2 0 0 1 2 0l.43.25a2 2 0 0 1 1 1.73V20a2 2 0 0 0 2 2h.44a2 2 0 0 0 2-2v-.18a2 2 0 0 1 1-1.73l.43-.25a2 2 0 0 1 2 0l.15.08a2 2 0 0 0 2.73-.73l.22-.39a2 2 0 0 0-.73-2.73l-.15-.08a2 2 0 0 1-1-1.74v-.5a2 2 0 0 1 1-1.74l.15-.09a2 2 0 0 0 .73-2.73l-.22-.38a2 2 0 0 0-2.73-.73l-.15.08a2 2 0 0 1-2 0l-.43-.25a2 2 0 0 1-1-1.73V4a2 2 0 0 0-2-2z"/><circle cx="12" cy="12" r="3"/></symbol>
    <symbol id="ic-help" viewBox="0 0 24 24" fill="none" stroke="currentColor" stroke-width="2" stroke-linecap="round" stroke-linejoin="round"><circle cx="12" cy="12" r="10"/><path d="M9.09 9a3 3 0 0 1 5.83 1c0 2-3 3-3 3"/><line x1="12" y1="17" x2="12.01" y2="17"/></symbol>
    <symbol id="ic-ftext" viewBox="0 0 24 24" fill="none" stroke="currentColor" stroke-width="2" stroke-linecap="round" stroke-linejoin="round"><path d="M17 6.1H3"/><path d="M21 12.1H3"/><path d="M15.1 18H3"/></symbol>
    <symbol id="ic-fimage" viewBox="0 0 24 24" fill="none" stroke="currentColor" stroke-width="2" stroke-linecap="round" stroke-linejoin="round"><rect width="18" height="18" x="3" y="3" rx="2" ry="2"/><circle cx="9" cy="9" r="2"/><path d="m21 15-3.086-3.086a2 2 0 0 0-2.828 0L6 21"/></symbol>
    <symbol id="ic-ffiles" viewBox="0 0 24 24" fill="none" stroke="currentColor" stroke-width="2" stroke-linecap="round" stroke-linejoin="round"><path d="M14 3H6a2 2 0 0 0-2 2v14a2 2 0 0 0 2 2h12a2 2 0 0 0 2-2V9z"/><path d="M14 3v6h6"/><path d="M8 13h8"/><path d="M8 17h5"/></symbol>
    <symbol id="ic-star" viewBox="0 0 24 24" fill="none" stroke="currentColor" stroke-width="2" stroke-linecap="round" stroke-linejoin="round"><polygon points="12 2 15.09 8.26 22 9.27 17 14.14 18.18 21.02 12 17.77 5.82 21.02 7 14.14 2 9.27 8.91 8.26 12 2"/></symbol>
    <symbol id="ic-star-fill" viewBox="0 0 24 24" stroke="currentColor" stroke-width="2" stroke-linecap="round" stroke-linejoin="round"><polygon fill="currentColor" points="12 2 15.09 8.26 22 9.27 17 14.14 18.18 21.02 12 17.77 5.82 21.02 7 14.14 2 9.27 8.91 8.26 12 2"/></symbol>
    <symbol id="ic-pin" viewBox="0 0 1024 1024"><path fill="currentColor" d="M512 375.04a42.67 42.67 0 0 1 42.67 42.67v469.33a42.67 42.67 0 0 1-85.34 0v-469.33A42.67 42.67 0 0 1 512 375.04z"/><path fill="currentColor" d="M511.83 359.08a42.67 42.67 0 0 1 27.43 10.03l264.28 222.16a42.67 42.67 0 0 1-54.91 65.32l-236.84-199.08-236.8 199.08a42.67 42.67 0 1 1-54.91-65.32l264.28-222.16a42.67 42.67 0 0 1 27.47-10.03zM202.58 94.38h618.67a42.67 42.67 0 0 1 0 85.33H202.58a42.67 42.67 0 0 1 0-85.33z"/></symbol>
    <symbol id="ic-x" viewBox="0 0 24 24" fill="none" stroke="currentColor" stroke-width="2" stroke-linecap="round" stroke-linejoin="round"><circle cx="12" cy="12" r="10"/><path d="m15 9-6 6"/><path d="m9 9 6 6"/></symbol>
  </defs>

  <rect x="0" y="0" width="640" height="748" fill="url(#bgL)"/>
  <rect x="640" y="0" width="640" height="748" fill="url(#bgD)"/>

  <!-- theme labels -->
  <g>
    <rect x="112" y="58" width="146" height="34" rx="10" fill="#ffffff" stroke="#d3dae6"/>
    <circle cx="133" cy="75" r="6" fill="#f4a72c"/>
    <g stroke="#f4a72c" stroke-width="1.6" stroke-linecap="round"><line x1="133" y1="63" x2="133" y2="66"/><line x1="133" y1="84" x2="133" y2="87"/><line x1="121" y1="75" x2="124" y2="75"/><line x1="142" y1="75" x2="145" y2="75"/><line x1="125" y1="67" x2="127" y2="69"/><line x1="139" y1="81" x2="141" y2="83"/><line x1="141" y1="67" x2="139" y2="69"/><line x1="127" y1="81" x2="125" y2="83"/></g>
    <text x="152" y="80" font-size="15" font-weight="600" fill="#2a3342">亮色 · Light</text>
  </g>
  <g>
    <rect x="728" y="58" width="150" height="34" rx="10" fill="#31374a" stroke="#454c62"/>
    <path d="M755 66 a10 10 0 1 0 0 18 a8 8 0 0 1 0 -18 z" fill="#d7ddec"/>
    <text x="772" y="80" font-size="15" font-weight="600" fill="#e6ebf6">暗色 · Dark</text>
  </g>

  <!-- ============ LIGHT WINDOW ============ -->
  <rect x="112" y="104" width="440" height="576" rx="14" fill="#ffffff" filter="url(#winShadow)"/>
  <g clip-path="url(#winL)">
    <rect x="112" y="104" width="440" height="576" fill="#ffffff"/>
    <text x="134" y="158" font-size="24" font-weight="700" fill="#303136">Hopy</text>
    <use href="#ic-help" x="474" y="138" width="22" height="22" color="#40444a"/>
    <use href="#ic-settings" x="506" y="138" width="22" height="22" color="#40444a"/>
    <rect x="134" y="180" width="228" height="34" rx="17" fill="#f0f0f0" stroke="#e0e0e0"/>
    <use href="#ic-search" x="150" y="189" width="16" height="16" color="#6b6b6b"/>
    <text x="318" y="203" font-size="13" fill="#6b6b6b">Aa</text>
    <text x="342" y="203" font-size="13" fill="#6b6b6b">W</text>
    <rect x="370" y="182" width="120" height="32" rx="8" fill="#f0f0f0" stroke="#e0e0e0"/>
    <use href="#ic-ftext" x="382" y="190" width="18" height="18" color="#6b6b6b"/>
    <use href="#ic-fimage" x="419" y="190" width="18" height="18" color="#6b6b6b"/>
    <use href="#ic-ffiles" x="456" y="190" width="18" height="18" color="#6b6b6b"/>
    <rect x="498" y="182" width="32" height="32" rx="8" fill="#f0f0f0" stroke="#e0e0e0"/>
    <use href="#ic-star" x="506" y="190" width="18" height="18" color="#6b6b6b"/>

    <!-- A color -->
    <rect x="132" y="228" width="400" height="86" rx="10" fill="#f5f5f5" stroke="#e0e0e0"/>
    <rect x="148" y="250" width="14" height="14" rx="3" fill="#5b7bd5" stroke="#808080" stroke-opacity="0.5"/>
    <text x="170" y="261" font-size="14" fill="#1a1a1a" font-family="'Cascadia Code','Consolas',ui-monospace,monospace">#5B7BD5</text>
    <text x="246" y="261" font-size="13" fill="#6b6b6b">主题色 · primary</text>
    <use href="#ic-star-fill" x="458" y="240" width="14" height="14" color="#5b7bd5"/>
    <use href="#ic-pin" x="480" y="240" width="14" height="14" color="#6b6b6b"/>
    <use href="#ic-x" x="502" y="240" width="14" height="14" color="#6b6b6b"/>
    <text x="148" y="304" font-size="10.5" fill="#6b6b6b">1     2026-07-03 15:24:47</text>
    <use href="#ic-ftext" x="504" y="295" width="12" height="12" color="#6b6b6b"/>

    <!-- B text selected -->
    <rect x="132" y="322" width="400" height="86" rx="10" fill="#e8edf8" stroke="#5b7bd5" stroke-opacity="0.55" stroke-width="1.5"/>
    <text x="148" y="352" font-size="14" fill="#1a1a1a">feat(ui): 双击卡片 = Enter 回贴</text>
    <text x="148" y="372" font-size="14" fill="#1a1a1a">同一套回贴逻辑，Shift 走纯文本粘贴…</text>
    <use href="#ic-star" x="458" y="334" width="14" height="14" color="#6b6b6b"/>
    <use href="#ic-pin" x="480" y="334" width="14" height="14" color="#6b6b6b"/>
    <use href="#ic-x" x="502" y="334" width="14" height="14" color="#6b6b6b"/>
    <text x="148" y="398" font-size="10.5" fill="#6b6b6b">2     2026-07-03 15:22:31</text>
    <use href="#ic-ftext" x="504" y="389" width="12" height="12" color="#6b6b6b"/>

    <!-- C image (height = thumb 90 + 46) -->
    <rect x="132" y="416" width="400" height="136" rx="10" fill="#f5f5f5" stroke="#e0e0e0"/>
    <g clip-path="url(#thL)">
      <rect x="148" y="426" width="160" height="90" fill="url(#shot)"/>
      <circle cx="285" cy="448" r="13" fill="#fff2c4" opacity="0.9"/>
      <path d="M148 510 L190 476 L228 502 L272 462 L308 504 L308 516 L148 516 Z" fill="#7fae74"/>
      <path d="M148 516 L208 488 L268 508 L308 478 L308 516 Z" fill="#5f9464"/>
    </g>
    <rect x="148" y="426" width="160" height="90" rx="5" fill="none" stroke="#000000" stroke-opacity="0.08"/>
    <use href="#ic-star" x="458" y="428" width="14" height="14" color="#6b6b6b"/>
    <use href="#ic-pin" x="480" y="428" width="14" height="14" color="#6b6b6b"/>
    <use href="#ic-x" x="502" y="428" width="14" height="14" color="#6b6b6b"/>
    <text x="148" y="536" font-size="10.5" fill="#6b6b6b">3     2026-07-03 15:21:20   ·   1920×1080</text>
    <use href="#ic-fimage" x="504" y="527" width="12" height="12" color="#6b6b6b"/>

    <!-- D files pinned -->
    <rect x="132" y="560" width="400" height="104" rx="10" fill="#f5f5f5" stroke="#e0e0e0"/>
    <text x="148" y="590" font-size="14" fill="#1a1a1a">hopy-预算表-2026Q2.xlsx</text>
    <text x="148" y="610" font-size="12" fill="#6b6b6b">E:\Hunlongyu\Documents\finance\</text>
    <text x="148" y="626" font-size="12" fill="#6b6b6b">hopy-预算表-2026Q2.xlsx</text>
    <use href="#ic-star" x="458" y="572" width="14" height="14" color="#6b6b6b"/>
    <use href="#ic-pin" x="480" y="572" width="14" height="14" color="#5b7bd5"/>
    <use href="#ic-x" x="502" y="572" width="14" height="14" color="#6b6b6b"/>
    <text x="148" y="646" font-size="10.5" fill="#6b6b6b">4     2026-07-03 15:17:00</text>
    <use href="#ic-ffiles" x="504" y="637" width="12" height="12" color="#6b6b6b"/>
  </g>

  <!-- ============ DARK WINDOW ============ -->
  <rect x="728" y="104" width="440" height="576" rx="14" fill="#2d2d2d" filter="url(#winShadow)"/>
  <g clip-path="url(#winR)">
    <rect x="728" y="104" width="440" height="576" fill="#2d2d2d"/>
    <text x="750" y="158" font-size="24" font-weight="700" fill="#ffffff">Hopy</text>
    <use href="#ic-help" x="1090" y="138" width="22" height="22" color="#cfcfcf"/>
    <use href="#ic-settings" x="1122" y="138" width="22" height="22" color="#cfcfcf"/>
    <rect x="750" y="180" width="228" height="34" rx="17" fill="#3c3c3c" stroke="#555555"/>
    <use href="#ic-search" x="766" y="189" width="16" height="16" color="#888888"/>
    <text x="934" y="203" font-size="13" fill="#888888">Aa</text>
    <text x="958" y="203" font-size="13" fill="#888888">W</text>
    <rect x="986" y="182" width="120" height="32" rx="8" fill="#3c3c3c"/>
    <use href="#ic-ftext" x="998" y="190" width="18" height="18" color="#cfcfcf"/>
    <use href="#ic-fimage" x="1035" y="190" width="18" height="18" color="#cfcfcf"/>
    <use href="#ic-ffiles" x="1072" y="190" width="18" height="18" color="#cfcfcf"/>
    <rect x="1114" y="182" width="32" height="32" rx="8" fill="#3c3c3c"/>
    <use href="#ic-star" x="1122" y="190" width="18" height="18" color="#cfcfcf"/>

    <!-- A color -->
    <rect x="748" y="228" width="400" height="86" rx="10" fill="#3c3c3c" stroke="#4c4c4c"/>
    <rect x="764" y="250" width="14" height="14" rx="3" fill="#5b7bd5" stroke="#000000" stroke-opacity="0.3"/>
    <text x="786" y="261" font-size="14" fill="#ffffff" font-family="'Cascadia Code','Consolas',ui-monospace,monospace">#5B7BD5</text>
    <text x="862" y="261" font-size="13" fill="#888888">主题色 · primary</text>
    <use href="#ic-star-fill" x="1074" y="240" width="14" height="14" color="#6b8cff"/>
    <use href="#ic-pin" x="1096" y="240" width="14" height="14" color="#888888"/>
    <use href="#ic-x" x="1118" y="240" width="14" height="14" color="#888888"/>
    <text x="764" y="304" font-size="10.5" fill="#888888">1     2026-07-03 15:24:47</text>
    <use href="#ic-ftext" x="1120" y="295" width="12" height="12" color="#888888"/>

    <!-- B text selected -->
    <rect x="748" y="322" width="400" height="86" rx="10" fill="#4b4b4b" stroke="#6b8cff" stroke-opacity="0.6" stroke-width="1.5"/>
    <text x="764" y="352" font-size="14" fill="#ffffff">feat(ui): 双击卡片 = Enter 回贴</text>
    <text x="764" y="372" font-size="14" fill="#ffffff">同一套回贴逻辑，Shift 走纯文本粘贴…</text>
    <use href="#ic-star" x="1074" y="334" width="14" height="14" color="#a8a8a8"/>
    <use href="#ic-pin" x="1096" y="334" width="14" height="14" color="#a8a8a8"/>
    <use href="#ic-x" x="1118" y="334" width="14" height="14" color="#a8a8a8"/>
    <text x="764" y="398" font-size="10.5" fill="#888888">2     2026-07-03 15:22:31</text>
    <use href="#ic-ftext" x="1120" y="389" width="12" height="12" color="#888888"/>

    <!-- C image -->
    <rect x="748" y="416" width="400" height="136" rx="10" fill="#3c3c3c" stroke="#4c4c4c"/>
    <g clip-path="url(#thR)">
      <rect x="764" y="426" width="160" height="90" fill="url(#shot)"/>
      <circle cx="901" cy="448" r="13" fill="#fff2c4" opacity="0.9"/>
      <path d="M764 510 L806 476 L844 502 L888 462 L924 504 L924 516 L764 516 Z" fill="#7fae74"/>
      <path d="M764 516 L824 488 L884 508 L924 478 L924 516 Z" fill="#5f9464"/>
    </g>
    <rect x="764" y="426" width="160" height="90" rx="5" fill="none" stroke="#ffffff" stroke-opacity="0.10"/>
    <use href="#ic-star" x="1074" y="428" width="14" height="14" color="#888888"/>
    <use href="#ic-pin" x="1096" y="428" width="14" height="14" color="#888888"/>
    <use href="#ic-x" x="1118" y="428" width="14" height="14" color="#888888"/>
    <text x="764" y="536" font-size="10.5" fill="#888888">3     2026-07-03 15:21:20   ·   1920×1080</text>
    <use href="#ic-fimage" x="1120" y="527" width="12" height="12" color="#888888"/>

    <!-- D files pinned -->
    <rect x="748" y="560" width="400" height="104" rx="10" fill="#3c3c3c" stroke="#4c4c4c"/>
    <text x="764" y="590" font-size="14" fill="#ffffff">hopy-预算表-2026Q2.xlsx</text>
    <text x="764" y="610" font-size="12" fill="#888888">E:\Hunlongyu\Documents\finance\</text>
    <text x="764" y="626" font-size="12" fill="#888888">hopy-预算表-2026Q2.xlsx</text>
    <use href="#ic-star" x="1074" y="572" width="14" height="14" color="#888888"/>
    <use href="#ic-pin" x="1096" y="572" width="14" height="14" color="#6b8cff"/>
    <use href="#ic-x" x="1118" y="572" width="14" height="14" color="#888888"/>
    <text x="764" y="646" font-size="10.5" fill="#888888">4     2026-07-03 15:17:00</text>
    <use href="#ic-ffiles" x="1120" y="637" width="12" height="12" color="#888888"/>
  </g>

  <text x="640" y="718" text-anchor="middle" font-size="14" fill="#7c88a0">同一份剪贴历史 · 亮 / 暗双主题一键切换，卡片、色块、缩略图与图标全部自适应</text>
</svg>
